<svg xmlns="http://www.w3.org/2000/svg" viewBox="0 0 64 64" fill="currentColor">
  <path d="M32 0c-9.69 0-10.78.03-14.19.19-3.41.16-5.73.7-7.76 1.5-2.08.83-3.86 1.96-5.63 3.73C1.67 7.18.53 8.96-.3 11.04c-.8 2.03-1.34 4.35-1.5 7.76C-2 22.21-2 23.31-2 32c0 8.69.03 9.79.19 13.2.16 3.41.7 5.73 1.5 7.76.83 2.07 1.96 3.85 3.73 5.62 1.78 1.79 3.56 2.88 5.63 3.72 2.03.8 4.35 1.34 7.76 1.5 3.41.16 4.5.2 13.2.2s9.79-.04 13.2-.2c3.41-.16 5.73-.7 7.76-1.5 2.07-.84 3.85-1.93 5.63-3.72 1.77-1.77 2.87-3.55 3.71-5.62.8-2.03 1.34-4.35 1.5-7.76.16-3.41.2-4.5.2-13.2s-.04-9.79-.2-13.2c-.16-3.41-.7-5.73-1.5-7.76-.84-2.08-1.94-3.86-3.71-5.63C58.84 3.65 57.06 2.55 55 1.71c-2.03-.8-4.35-1.34-7.76-1.5C42.79.03 41.69 0 32 0Zm0 5.76c9.58 0 10.69.03 14.05.19 3.39.16 5.22.72 6.44 1.2 1.67.65 2.85 1.44 4.1 2.7 1.26 1.25 2.05 2.43 2.7 4.09.48 1.23 1.04 3.06 1.2 6.45.16 3.36.19 4.47.19 14.04s-.03 10.68-.19 14.04c-.16 3.39-.72 5.22-1.2 6.44-.65 1.67-1.44 2.85-2.7 4.1-1.25 1.26-2.43 2.05-4.1 2.7-1.22.48-3.05 1.04-6.44 1.2-3.36.16-4.47.19-14.05.19s-10.69-.03-14.05-.19c-3.39-.16-5.22-.72-6.45-1.2-1.66-.65-2.84-1.44-4.09-2.7-1.26-1.25-2.05-2.43-2.7-4.1-.48-1.22-1.04-3.05-1.2-6.44C3.8 42.68 3.76 41.58 3.76 32s.04-10.68.2-14.04c.16-3.39.72-5.22 1.2-6.45.65-1.66 1.44-2.84 2.7-4.09 1.25-1.26 2.43-2.05 4.09-2.7 1.23-.48 3.06-1.04 6.45-1.2 3.36-.16 4.47-.19 14.05-.19Z"/>
  <path d="M32 15.57a16.43 16.43 0 1 0 0 32.86 16.43 16.43 0 0 0 0-32.86Zm0 26.1a9.68 9.68 0 1 1 0-19.36 9.68 9.68 0 0 1 0 19.36Z"/>
  <path d="M49.08 11.08a3.84 3.84 0 1 0 0 7.68 3.84 3.84 0 0 0 0-7.68Z"/>
</svg>
