<svg xmlns="http://www.w3.org/2000/svg" viewBox="0 0 64 64" fill="currentColor">
  <path d="M12.542 0C5.645 0 0 5.645 0 12.542v38.918C0 58.357 5.645 64 12.542 64h38.918C58.357 64 64 58.357 64 51.46V12.542C64 5.645 58.357 0 51.46 0H12.542Zm0 5.76H51.46c3.742 0 6.782 3.039 6.782 6.782v38.918c0 3.742-3.04 6.782-6.782 6.782H12.542c-3.742 0-6.782-3.04-6.782-6.782V12.542c0-3.743 3.04-6.782 6.782-6.782Z"/>
  <path d="M15.696 10.561c3.307 0 5.344 2.171 5.407 5.025 0 2.79-2.1 5.022-5.471 5.022h-.062c-3.244 0-5.34-2.232-5.34-5.022 0-2.854 2.16-5.025 5.466-5.025Zm-4.897 14.022h9.665v29.082H10.799V24.583Z"/>
  <path d="M44.194 23.899c6.36 0 11.127 4.157 11.127 13.09v16.676h-9.665V38.107c0-3.91-1.399-6.577-4.897-6.577-2.67 0-4.262 1.798-4.961 3.535-.255.621-.318 1.489-.318 2.358v16.242H25.815s.127-26.355 0-29.084h9.667v4.118c1.284-1.982 3.581-4.801 8.712-4.801Z"/>
</svg>
