<svg xmlns="http://www.w3.org/2000/svg" viewBox="0 0 64 64" fill="currentColor">
  <path fill-rule="evenodd" clip-rule="evenodd" d="M46.476 0C56.154 0 64 7.846 64 17.524v28.952C64 56.154 56.154 64 46.476 64H17.524C7.846 64 0 56.154 0 46.476V17.524C0 7.846 7.846 0 17.524 0H46.476Zm0 5.76H17.524c-6.46 0-11.764 5.304-11.764 11.764v28.952c0 6.46 5.304 11.764 11.764 11.764h28.952c6.46 0 11.764-5.304 11.764-11.764V17.524c0-6.46-5.304-11.764-11.764-11.764Zm4.067 10.312c1.664 0 3.016-1.352 3.016-3.016A3.017 3.017 0 0 0 50.543 10c-1.664 0-3.016 1.352-3.016 3.056 0 1.664 1.352 3.016 3.016 3.016ZM41.53 17.9c1.032-.396 2.328.152 2.05.772-.096.216-.268.412-.484.616l-1.238 1.132-9.302 8.476-4.606 4.213c-.106.09-.17.214-.182.35-.07.64-.122.97-.205 2.108l-.299 3.833-.132 1.45c.026.252.026.5 0 .752h.278c.57-.136 1.09-.43 1.498-.848l2.966-2.846.91-.89.093.052 7.873 5.787c.36.263.767.456 1.198.57.474.183.992.183 1.46 0a1.76 1.76 0 0 0 .713-.57c.16-.329.277-.676.351-1.034.392-1.746.754-3.492 1.126-5.247l2.314-10.705c.693-3.224 1.385-6.437 2.067-9.651.093-.443.093-.9 0-1.344-.057-.396-.265-.756-.582-1.002-.316-.245-.716-.358-1.114-.314l-27.639 10.5-2.449 1.034c-.723.284-1.239.887-1.307 1.64a1.3 1.3 0 0 0 .494 1.115c.202.16.448.264.704.322l7.935 2.41c.38.126.798.034 1.21-.225l16.586-10.41c.299-.202.581-.394.916-.56Z"/>
</svg>
