<svg width="64" height="64" viewBox="0 0 64 64" fill="none" xmlns="http://www.w3.org/2000/svg">
<g clip-path="url(#clip0_1_2)">
<path fill-rule="evenodd" clip-rule="evenodd" d="M38.0919 4.86594C40.335 5.58958 42.2588 6.96646 43.3427 9.09134C43.4288 9.25986 43.5089 9.4313 43.5828 9.60546C43.6566 9.77952 43.724 9.95593 43.7853 10.1347C43.8465 10.3136 43.9015 10.4946 43.9498 10.6773C43.9982 10.86 44.0397 11.0442 44.0748 11.2298C44.11 11.4154 44.1386 11.602 44.1603 11.7896C44.1822 11.9772 44.1973 12.1652 44.2057 12.3537C44.214 12.5422 44.2156 12.7309 44.2105 12.9195C44.2053 13.1081 44.1935 13.2962 44.175 13.4839C43.5787 19.4206 37.7494 21.3726 36.0491 26.5232C36.0027 26.7089 35.9041 27.0173 35.8516 27.3184C36.1572 27.5597 36.4364 27.8258 36.6879 28.1115C36.7555 28.1069 36.8235 28.101 36.892 28.0925C37.885 27.9684 38.8658 27.6741 39.8399 27.4467C41.6867 27.0159 43.5531 26.6983 45.3043 25.9414C45.5245 25.846 45.7407 25.7422 45.9529 25.6303C46.165 25.5182 46.3727 25.3984 46.5758 25.2706C46.7785 25.1427 46.9762 25.0074 47.1686 24.8644C47.3609 24.7214 47.5476 24.5713 47.7283 24.4141C48.7126 23.5585 49.4265 22.5213 50.0046 21.3621C48.7691 20.487 47.8903 19.5081 47.6197 17.9768C47.6071 17.9033 47.5964 17.8297 47.5875 17.7558C47.5786 17.6818 47.5717 17.6077 47.5664 17.5334C47.5613 17.4593 47.5579 17.3848 47.5563 17.3103C47.5548 17.2359 47.5552 17.1615 47.5575 17.0871C47.5596 17.0127 47.5637 16.9382 47.5697 16.8641C47.5755 16.79 47.5831 16.716 47.5927 16.6422C47.6023 16.5685 47.6138 16.495 47.6273 16.4218C47.6405 16.3486 47.6554 16.2758 47.6723 16.2035C47.6892 16.1311 47.7079 16.059 47.7283 15.9875C47.7488 15.9161 47.7709 15.8451 47.7949 15.7747C47.8189 15.7043 47.8447 15.6345 47.8721 15.5654C47.8996 15.4964 47.9289 15.4282 47.9597 15.3607C47.9905 15.293 48.0231 15.226 48.0575 15.16C48.0916 15.0941 48.1275 15.029 48.1651 14.9649C48.2025 14.9006 48.2413 14.8372 48.2819 14.775C48.3226 14.7128 48.3647 14.6515 48.4084 14.5914C49.1503 13.553 50.2156 12.938 51.474 12.7334C52.5553 12.5577 53.8956 12.8171 54.7848 13.4797C55.8529 14.2757 56.6024 15.4434 56.7713 16.7685C56.7814 16.8429 56.7898 16.9176 56.7963 16.9925C56.8028 17.0674 56.8075 17.1425 56.8104 17.2176C56.8131 17.2926 56.8141 17.3677 56.8132 17.4428C56.8123 17.518 56.8097 17.5931 56.805 17.668C56.8003 17.7429 56.7939 17.8178 56.7856 17.8924C56.7773 17.9671 56.7671 18.0414 56.755 18.1154C56.7431 18.1895 56.7294 18.2634 56.7137 18.3368C56.698 18.4102 56.6805 18.4832 56.6612 18.5557C56.6418 18.6282 56.6209 18.7003 56.598 18.7718C56.5753 18.8432 56.5506 18.914 56.5242 18.9842C56.498 19.0545 56.47 19.1241 56.4402 19.193C56.4104 19.2619 56.379 19.3301 56.3459 19.3974C56.3127 19.4646 56.2778 19.5312 56.2414 19.5969C56.2049 19.6624 56.1667 19.727 56.1271 19.7907C56.0875 19.8543 56.0462 19.917 56.0035 19.9786C55.9608 20.0402 55.9165 20.1008 55.8708 20.1603C55.526 20.601 54.9716 21.2086 54.4644 21.4577C53.9637 21.7036 53.2579 21.6778 52.8639 22.0922C52.5299 22.4435 52.3111 22.9809 52.0551 23.3952C51.5109 24.2757 50.8667 25.1273 50.1192 25.8466C47.375 28.487 43.8891 29.2267 40.3039 30.0273C39.5777 30.1894 38.7721 30.3351 38.0371 30.5833C38.3406 31.6452 38.3698 32.7853 38.0885 33.889C40.2121 35.0444 42.4104 36.2056 44.8825 35.4512C47.9157 34.5255 49.4944 31.7114 51.6387 29.6513C51.9435 29.3605 52.2616 29.0844 52.5922 28.823C52.9228 28.5616 53.2651 28.3161 53.6188 28.0864C53.9725 27.8567 54.3361 27.6436 54.7097 27.4475C55.0833 27.2513 55.4656 27.0729 55.8559 26.912C56.9838 26.4512 58.2625 26.1531 59.4887 26.2918C59.9092 26.9707 60.0613 27.721 60.2587 28.4838C60.8791 30.8805 61.2743 33.3101 60.7006 35.7521C60.1456 38.1143 58.8806 40.0581 57.257 41.8234C56.7524 42.372 56.0931 42.947 55.7262 43.5979C55.2947 44.3632 55.245 45.4519 55.1234 46.3097C54.6979 49.3075 53.342 51.79 50.7002 53.3886C48.9148 54.4691 46.8751 54.9228 45.0526 55.9039C43.69 56.6372 42.5347 57.6913 41.2142 58.4932C38.4671 60.1616 34.9608 60.6901 31.7866 60.3003C30.5714 60.1511 29.3862 59.8525 28.2 59.5569C24.4456 58.6212 21.2958 57.5922 19.1775 54.0802C17.5386 51.3636 16.6819 47.3415 17.4484 44.2536C17.7226 43.1485 18.2601 42.1872 18.8646 41.2329C16.5136 40.6341 14.4161 40.0617 12.1313 41.1939C12.6093 42.61 12.787 43.9157 12.0941 45.2943C11.5589 46.3589 10.6203 47.1238 9.48505 47.488C8.29695 47.869 6.9581 47.7208 5.85588 47.1362C4.75802 46.5539 3.92776 45.5785 3.57757 44.3872C3.2323 43.2117 3.33878 41.8928 3.93757 40.821C3.9746 40.7555 4.01328 40.6907 4.05341 40.6269C4.09372 40.5631 4.13553 40.5001 4.17894 40.4383C4.22226 40.3766 4.26736 40.3161 4.31372 40.2566C4.36015 40.197 4.40798 40.1385 4.4572 40.0813C4.50641 40.0241 4.55703 39.9682 4.6091 39.9135C4.66114 39.8588 4.71456 39.8053 4.76913 39.7533C4.82386 39.7011 4.87982 39.6503 4.93701 39.601C4.99411 39.5517 5.05255 39.5036 5.11205 39.4571C5.17161 39.4107 5.23237 39.3658 5.29409 39.3222C5.3559 39.2787 5.41863 39.2366 5.4825 39.1961C5.54632 39.1558 5.6113 39.1172 5.67702 39.0798C5.74283 39.0425 5.80965 39.0069 5.8772 38.9731C5.94474 38.9391 6.01303 38.9067 6.08208 38.8761C6.15123 38.8455 6.22134 38.8164 6.29201 38.7892C6.3625 38.762 6.43387 38.7365 6.50571 38.7128C6.57759 38.6891 6.65015 38.667 6.72306 38.6468C7.93929 38.3115 9.14672 38.5699 10.2571 39.1218C11.3821 38.6166 12.4953 38.1105 13.7443 38.004C15.824 37.8266 17.7304 38.4284 19.7533 38.7445C22.9826 39.2491 25.1608 38.434 26.6245 35.8751C25.6342 34.4325 25.2629 32.6234 25.6496 30.8875C22.0277 30.2621 17.812 32.5576 14.2476 32.9241C13.1171 33.0403 11.9308 33.0257 10.8102 32.8143C9.7115 32.607 8.51676 32.183 7.39781 32.2408C6.69175 32.2774 6.02924 32.5895 5.33931 32.7118C4.99287 32.7731 4.63697 32.7694 4.34916 32.5417C4.12884 32.3673 4.10164 32.1174 4.10135 31.8572C4.09967 30.5542 4.6593 28.8426 4.85979 27.4762C4.99913 26.5262 5.02473 25.5663 5.15356 24.6158C5.4684 22.2941 6.49108 20.1305 8.16899 18.4865C8.85004 17.8193 9.72328 17.3686 10.3792 16.6778C10.3997 16.6562 10.4194 16.6339 10.4395 16.6119C10.6212 15.8865 10.7941 15.1544 11.0116 14.4389C11.8885 11.554 13.7726 8.98989 16.4826 7.57965C20.1799 5.65575 22.9825 6.6915 26.6768 5.97124C28.9046 5.5368 30.8717 4.45864 33.1763 4.29617C34.8137 4.18087 36.5253 4.36064 38.0919 4.86594ZM30.5495 38.5142C30.002 38.3938 29.461 38.1998 28.9403 37.927C28.8403 37.8746 28.7424 37.8198 28.6463 37.7629C27.2401 39.5366 25.6881 40.9469 23.2602 41.3259C22.8091 41.3964 22.3497 41.4352 21.895 41.4795C20.4277 43.0312 19.775 44.8785 19.8437 47.0059C19.9296 49.667 20.6726 52.5643 22.6809 54.4558C23.8308 55.5386 25.394 56.1636 26.9365 56.4086C26.2074 54.228 25.7734 52.2066 26.8441 50.0566C27.4567 48.8267 28.4108 47.8176 29.1736 46.6855C30.7708 44.3159 31.1886 41.2897 30.5495 38.5142ZM41.5731 54.7448C40.3962 54.3395 39.2523 53.8561 38.1416 53.2942C35.3763 51.9133 32.6405 50.167 29.4155 50.9502C28.7933 52.2015 28.6524 53.2218 29.1028 54.5516C29.1416 54.6654 29.1838 54.7779 29.2294 54.8891C29.8266 56.1446 30.669 57.1822 32.0203 57.6643C34.1496 58.4234 37.0105 57.6351 38.9542 56.7054C39.6355 56.3793 41.3857 55.5529 41.7764 54.928L41.7328 54.8098L41.5731 54.7448ZM36.4438 36.7903C35.5576 37.6818 34.4333 38.2775 33.2284 38.5286C33.3031 39.1211 33.4247 39.7182 33.4578 40.3057C33.6169 43.1294 32.7624 45.674 31.4708 48.136C32.6063 48.244 33.6928 48.4179 34.7741 48.7966C37.9873 49.9221 40.9594 52.319 44.4374 52.5672C46.5152 52.7154 48.5403 51.9336 50.08 50.5732C51.6022 49.2285 52.3888 47.7245 52.5139 45.6981C51.4011 46.0911 50.277 46.4981 49.1011 46.6606C46.2277 47.0576 43.3918 46.0508 41.596 43.724C41.0347 42.997 40.6007 42.1707 40.1433 41.3774C39.125 39.6113 38.0181 38.0693 36.4438 36.7903ZM21.8875 25.7674C20.5758 22.9166 19.532 19.9191 16.4329 18.5517C16.3774 18.5274 16.3216 18.5036 16.2657 18.4806C14.6116 18.0436 13.0337 18.4095 11.5816 19.2625C11.4719 19.3259 11.3636 19.3922 11.2573 19.4609C11.1509 19.5297 11.0461 19.6012 10.9433 19.6752C10.8405 19.7493 10.7395 19.8258 10.6406 19.9049C10.5416 19.9838 10.4446 20.0654 10.3497 20.1493C10.2549 20.2331 10.1621 20.3192 10.0717 20.4077C9.98119 20.4961 9.89294 20.587 9.80704 20.6799C9.72099 20.7728 9.63722 20.868 9.55606 20.9651C9.47501 21.0621 9.39623 21.1612 9.31997 21.2622C9.24385 21.3631 9.17019 21.4663 9.09912 21.571C9.02806 21.6757 8.9597 21.7821 8.89401 21.8903C8.82823 21.9984 8.76509 22.1081 8.70491 22.2194C8.64475 22.3306 8.58744 22.4436 8.53296 22.5576C8.47849 22.6718 8.42666 22.7872 8.37795 22.9038C8.32917 23.0206 8.28344 23.1387 8.24059 23.2578C8.19773 23.3767 8.15778 23.4969 8.12094 23.618C8.08409 23.7391 8.05032 23.8614 8.01964 23.9841C7.56225 25.8543 7.48251 27.8673 7.18091 29.7733C9.33274 29.4923 11.391 30.4495 13.5658 30.3165C16.836 30.0578 19.8809 28.6183 23.1447 28.2012C22.8129 27.3485 22.2693 26.5974 21.8875 25.7674ZM33.7539 28.6574C31.7436 27.6373 29.2866 28.4408 28.2661 30.452C27.2456 32.4631 28.048 34.9204 30.0584 35.9405C32.0687 36.9605 34.5257 36.1571 35.5461 34.1459C36.5666 32.1348 35.7641 29.6774 33.7539 28.6574ZM57.5965 29.0865C56.4096 29.4242 55.3539 29.8701 54.3775 30.6334C53.0885 31.6414 52.1929 32.988 51.1302 34.2069C48.3969 37.3411 45.1756 38.8671 41.0189 37.863C41.8271 39.2576 42.5758 40.8402 43.587 42.0936C44.6912 43.237 46.0468 44.0808 47.6743 44.1207C50.1608 44.1818 52.8928 42.4328 54.6033 40.777C56.6574 38.7888 58.266 36.1473 58.2952 33.2181C58.3085 31.874 58.0866 30.3497 57.5965 29.0865ZM28.784 14.4856C29.0137 11.662 26.8803 9.839 24.3173 9.14621C22.0598 8.53614 19.3766 8.9889 17.3706 10.1381C15.2841 11.3335 14.041 13.4218 13.4348 15.6936C13.4184 15.7554 13.4025 15.8175 13.3877 15.8797C15.5641 15.5083 17.4453 15.8115 19.2744 17.1062C20.6989 18.1143 21.707 19.5072 22.5257 21.0265C23.8139 23.4176 24.4389 26.1181 26.9289 27.6173C27.0501 27.6903 27.1762 27.7634 27.3058 27.8333C28.0549 27.0685 28.9776 26.517 29.9774 26.2098C29.7279 25.828 29.4752 25.444 29.3213 25.0273C29.2996 24.9935 29.2769 24.9599 29.2557 24.9254C29.0101 24.5273 28.8571 24.0425 28.7074 23.602C28.0816 21.7594 27.8701 19.9402 28.1175 18.0109C28.2693 16.8285 28.6883 15.6622 28.784 14.4856ZM38.2114 7.55966C35.9439 6.4588 33.3267 6.68685 31.0105 7.49575C30.2912 7.74694 29.5893 8.06802 28.886 8.3603C30.4594 9.84937 31.4806 11.57 31.5425 13.773C31.5722 14.8337 31.3422 15.8383 31.1236 16.8668C30.4115 20.2203 30.717 21.5484 32.2452 24.5059C32.5053 24.9264 32.7799 25.3376 33.0688 25.7391C33.2442 25.3348 33.4202 24.9363 33.6295 24.5484C34.2946 23.2189 35.1293 22.0332 36.1131 20.9191C36.989 19.9274 37.9956 19.0583 38.8712 18.0702C40.6154 16.102 42.0295 13.3527 41.1213 10.6811C40.6372 9.25748 39.5498 8.2096 38.2114 7.55966Z" fill="#A48B5C"/>
</g>
<defs>
<clipPath id="clip0_1_2">
<rect width="64" height="64" fill="white"/>
</clipPath>
</defs>
</svg>
