<svg width="256" height="256" viewBox="0 0 256 256" fill="none" xmlns="http://www.w3.org/2000/svg">
<g clip-path="url(#clip0_0_3)">
<path fill-rule="evenodd" clip-rule="evenodd" d="M152.368 19.4638C161.34 22.3583 169.035 27.8658 173.371 36.3653C173.715 37.0394 174.036 37.7252 174.331 38.4218C174.626 39.1181 174.896 39.8237 175.141 40.5387C175.386 41.2543 175.606 41.9784 175.799 42.709C175.993 43.4399 176.159 44.1769 176.299 44.9193C176.44 45.6615 176.554 46.4082 176.641 47.1585C176.729 47.9088 176.789 48.6607 176.823 49.4147C176.856 50.1688 176.862 50.9238 176.842 51.6781C176.821 52.4325 176.774 53.185 176.7 53.9356C174.315 77.6823 150.998 85.4904 144.196 106.093C144.011 106.836 143.616 108.069 143.406 109.274C144.629 110.239 145.746 111.303 146.752 112.446C147.022 112.427 147.294 112.404 147.568 112.37C151.54 111.873 155.463 110.696 159.359 109.787C166.747 108.064 174.212 106.793 181.217 103.766C182.098 103.384 182.963 102.969 183.812 102.521C184.66 102.073 185.491 101.593 186.303 101.083C187.114 100.571 187.905 100.029 188.674 99.4575C189.444 98.8856 190.19 98.2854 190.913 97.6565C194.851 94.2341 197.706 90.0851 200.018 85.4485C195.076 81.9479 191.561 78.0325 190.479 71.9071C190.428 71.6132 190.385 71.3187 190.35 71.0232C190.314 70.7272 190.287 70.4308 190.266 70.1338C190.245 69.837 190.231 69.5393 190.225 69.2412C190.219 68.9438 190.221 68.6461 190.23 68.3486C190.238 68.0507 190.255 67.7529 190.279 67.4565C190.302 67.1599 190.332 66.864 190.371 66.5689C190.409 66.2741 190.455 65.9799 190.509 65.6872C190.562 65.3945 190.622 65.1033 190.689 64.814C190.757 64.5243 190.832 64.2359 190.913 63.9498C190.995 63.6642 191.084 63.3804 191.179 63.0987C191.276 62.8174 191.379 62.5381 191.489 62.2616C191.599 61.9857 191.715 61.7127 191.839 61.4426C191.962 61.1719 192.093 60.9039 192.23 60.6401C192.367 60.3764 192.51 60.1162 192.66 59.8596C192.81 59.6026 192.965 59.3489 193.128 59.1C193.29 58.8513 193.459 58.6062 193.634 58.3655C196.601 54.2118 200.862 51.7522 205.896 50.9335C210.221 50.2306 215.582 51.2684 219.139 53.9187C223.412 57.1029 226.409 61.7737 227.085 67.0739C227.126 67.3716 227.159 67.6706 227.185 67.9699C227.211 68.2696 227.23 68.57 227.242 68.8704C227.253 69.1704 227.256 69.4708 227.253 69.7712C227.249 70.0719 227.239 70.3724 227.22 70.672C227.201 70.9716 227.176 71.2711 227.142 71.5698C227.109 71.8683 227.069 72.1656 227.02 72.4617C226.973 72.7579 226.918 73.0534 226.855 73.3472C226.792 73.6407 226.722 73.9329 226.645 74.2227C226.567 74.5128 226.484 74.8012 226.392 75.087C226.301 75.3728 226.202 75.656 226.097 75.9368C225.992 76.218 225.88 76.4966 225.761 76.7721C225.642 77.0474 225.516 77.3204 225.384 77.5896C225.251 77.8584 225.111 78.1247 224.966 78.3875C224.82 78.6495 224.667 78.9081 224.508 79.1628C224.35 79.4174 224.185 79.6678 224.014 79.9144C223.843 80.161 223.666 80.4032 223.483 80.6411C222.104 82.4041 219.886 84.8344 217.857 85.8309C215.855 86.8143 213.032 86.7114 211.455 88.3688C210.12 89.774 209.244 91.9237 208.221 93.5806C206.044 97.1029 203.467 100.509 200.477 103.387C189.5 113.948 175.556 116.907 161.215 120.109C158.311 120.758 155.088 121.341 152.148 122.333C153.362 126.581 153.479 131.141 152.354 135.556C160.848 140.178 169.642 144.822 179.53 141.805C191.663 138.102 197.978 126.846 206.555 118.605C207.774 117.442 209.046 116.338 210.369 115.292C211.691 114.247 213.06 113.264 214.475 112.346C215.89 111.427 217.344 110.574 218.839 109.79C220.333 109.005 221.862 108.292 223.424 107.648C227.935 105.805 233.05 104.612 237.955 105.167C239.637 107.883 240.245 110.884 241.035 113.935C243.516 123.522 245.097 133.24 242.802 143.008C240.582 152.457 235.523 160.232 229.028 167.294C227.009 169.488 224.372 171.788 222.905 174.391C221.179 177.453 220.98 181.807 220.493 185.239C218.792 197.23 213.368 207.16 202.801 213.554C195.659 217.877 187.5 219.691 180.21 223.615C174.76 226.549 170.139 230.765 164.857 233.973C153.868 240.646 139.843 242.76 127.146 241.201C122.285 240.605 117.545 239.41 112.8 238.227C97.7823 234.485 85.1833 230.369 76.7099 216.321C70.1545 205.454 66.7278 189.366 69.7935 177.014C70.8904 172.594 73.0403 168.749 75.4582 164.932C66.0544 162.536 57.6643 160.247 48.5252 164.776C50.4371 170.44 51.148 175.663 48.3762 181.177C46.2356 185.436 42.4812 188.495 37.9402 189.952C33.1878 191.476 27.8324 190.883 23.4235 188.545C19.0321 186.215 15.7111 182.314 14.3103 177.549C12.9292 172.847 13.3551 167.571 15.7503 163.284C15.8984 163.022 16.0531 162.763 16.2137 162.508C16.3749 162.252 16.5421 162 16.7158 161.753C16.889 161.507 17.0695 161.264 17.2549 161.026C17.4406 160.788 17.6319 160.554 17.8288 160.325C18.0256 160.096 18.2281 159.873 18.4364 159.654C18.6446 159.435 18.8583 159.221 19.0765 159.013C19.2954 158.804 19.5193 158.601 19.7481 158.404C19.9764 158.207 20.2102 158.014 20.4482 157.828C20.6865 157.643 20.9295 157.463 21.1764 157.289C21.4236 157.115 21.6745 156.946 21.93 156.785C22.1853 156.623 22.4452 156.469 22.7081 156.319C22.9713 156.17 23.2386 156.028 23.5088 155.892C23.779 155.756 24.0521 155.627 24.3283 155.504C24.6049 155.382 24.8853 155.266 25.168 155.157C25.45 155.048 25.7355 154.946 26.0229 154.851C26.3104 154.756 26.6006 154.668 26.8922 154.587C31.7571 153.246 36.5869 154.28 41.0284 156.487C45.5284 154.466 49.9813 152.442 54.977 152.016C63.2961 151.307 70.9214 153.713 79.0131 154.978C91.9305 156.997 100.643 153.736 106.498 143.5C102.537 137.73 101.052 130.494 102.599 123.55C88.1106 121.048 71.2482 130.23 56.9905 131.696C52.4684 132.161 47.7233 132.103 43.2406 131.257C38.846 130.428 34.067 128.732 29.5913 128.963C26.767 129.109 24.117 130.358 21.3573 130.847C19.9715 131.093 18.5479 131.077 17.3967 130.167C16.5154 129.469 16.4065 128.47 16.4054 127.429C16.3987 122.217 18.6372 115.37 19.4392 109.905C19.9965 106.105 20.0989 102.265 20.6142 98.4633C21.8736 89.1766 25.9643 80.5221 32.676 73.9459C35.4002 71.2771 38.8931 69.4742 41.5167 66.711C41.5986 66.625 41.6777 66.5354 41.7582 66.4478C42.4849 63.5459 43.1765 60.6177 44.0464 57.7554C47.5539 46.216 55.0905 35.9596 65.9304 30.3186C80.7197 22.623 91.9298 26.766 106.707 23.885C115.619 22.1472 123.487 17.8345 132.705 17.1847C139.255 16.7235 146.101 17.4426 152.368 19.4638ZM122.198 154.057C120.008 153.575 117.844 152.799 115.761 151.708C115.361 151.498 114.97 151.279 114.585 151.052C108.961 158.146 102.753 163.787 93.041 165.304C91.2365 165.585 89.3989 165.741 87.5799 165.918C81.7109 172.125 79.0999 179.514 79.3748 188.024C79.7184 198.668 82.6903 210.257 90.7237 217.823C95.3233 222.154 101.576 224.654 107.746 225.634C104.83 216.912 103.094 208.827 107.377 200.226C109.827 195.307 113.643 191.27 116.695 186.742C123.083 177.264 124.755 165.159 122.198 154.057ZM166.292 218.979C161.585 217.358 157.009 215.424 152.567 213.177C141.505 207.653 130.562 200.668 117.662 203.801C115.173 208.806 114.61 212.887 116.411 218.207C116.566 218.662 116.735 219.111 116.918 219.556C119.306 224.578 122.676 228.729 128.081 230.657C136.598 233.694 148.042 230.541 155.817 226.822C158.542 225.517 165.543 222.211 167.105 219.712L166.931 219.239L166.292 218.979ZM145.775 147.161C142.23 150.727 137.733 153.11 132.914 154.114C133.212 156.484 133.699 158.873 133.831 161.223C134.468 172.518 131.05 182.696 125.883 192.544C130.425 192.976 134.771 193.671 139.096 195.187C151.949 199.688 163.838 209.276 177.75 210.269C186.061 210.862 194.161 207.734 200.32 202.293C206.409 196.914 209.555 190.898 210.055 182.792C205.604 184.365 201.108 185.992 196.405 186.642C184.911 188.23 173.567 184.203 166.384 174.896C164.139 171.988 162.403 168.683 160.573 165.51C156.5 158.445 152.072 152.277 145.775 147.161ZM87.5502 103.07C82.3034 91.6664 78.128 79.6764 65.7315 74.2069C65.5096 74.1095 65.2865 74.0143 65.0626 73.9222C58.4464 72.1745 52.1348 73.638 46.3266 77.05C45.8874 77.3037 45.4545 77.5687 45.0292 77.8437C44.6036 78.1187 44.1845 78.4048 43.7733 78.7006C43.3619 78.9971 42.9582 79.3031 42.5624 79.6196C42.1666 79.9353 41.7784 80.2617 41.3989 80.597C41.0196 80.9323 40.6486 81.2767 40.2869 81.6307C39.9248 81.9845 39.5718 82.348 39.2282 82.7194C38.884 83.0913 38.5489 83.4722 38.2243 83.8606C37.9001 84.2483 37.5849 84.6447 37.2799 85.0488C36.9754 85.4525 36.6808 85.865 36.3965 86.284C36.1122 86.703 35.8388 87.1285 35.576 87.561C35.3129 87.9935 35.0604 88.4326 34.8197 88.8776C34.579 89.3225 34.3498 89.7743 34.1319 90.2303C33.914 90.6872 33.7066 91.1488 33.5118 91.6154C33.3167 92.0826 33.1338 92.5548 32.9623 93.0313C32.7909 93.507 32.6311 93.9876 32.4838 94.4719C32.3364 94.9564 32.2013 95.4454 32.0786 95.9365C30.249 103.417 29.93 111.469 28.7236 119.093C37.3309 117.969 45.5638 121.798 54.2632 121.266C67.3441 120.231 79.5236 114.473 92.5788 112.805C91.2517 109.394 89.0773 106.39 87.5502 103.07ZM135.016 114.63C126.974 110.549 117.147 113.763 113.065 121.808C108.983 129.853 112.192 139.682 120.233 143.762C128.275 147.842 138.103 144.628 142.185 136.584C146.266 128.539 143.057 118.71 135.016 114.63ZM230.386 116.346C225.638 117.697 221.416 119.48 217.51 122.534C212.354 126.565 208.772 131.952 204.521 136.828C193.588 149.365 180.703 155.468 164.076 151.452C167.308 157.03 170.303 163.361 174.348 168.374C178.765 172.948 184.187 176.323 190.697 176.483C200.643 176.727 211.571 169.731 218.413 163.108C226.63 155.155 233.064 144.589 233.181 132.872C233.234 127.496 232.346 121.399 230.386 116.346ZM115.136 57.9424C116.055 46.6481 107.521 39.356 97.269 36.5848C88.2392 34.1446 77.5062 35.9556 69.4825 40.5525C61.1364 45.3339 56.164 53.6871 53.7391 62.7746C53.6735 63.0217 53.6101 63.2699 53.5508 63.5187C62.2563 62.033 69.7811 63.246 77.0977 68.4246C82.7958 72.4573 86.8278 78.0288 90.1027 84.106C95.2556 93.6704 97.7554 104.473 107.716 110.469C108.201 110.761 108.705 111.054 109.223 111.333C112.22 108.274 115.91 106.068 119.91 104.839C118.912 103.312 117.901 101.776 117.285 100.109C117.198 99.9738 117.108 99.8396 117.023 99.7016C116.04 98.109 115.428 96.1699 114.83 94.408C112.326 87.0376 111.48 79.7607 112.47 72.0434C113.077 67.314 114.753 62.6487 115.136 57.9424ZM152.845 30.2387C143.776 25.8352 133.307 26.7474 124.042 29.983C121.165 30.9878 118.357 32.2721 115.544 33.4412C121.838 39.3975 125.923 46.2799 126.17 55.0921C126.289 59.335 125.369 63.3533 124.495 67.4673C121.646 80.8811 122.868 86.1934 128.981 98.0236C130.021 99.7055 131.12 101.35 132.275 102.956C132.977 101.339 133.681 99.7451 134.518 98.1936C137.178 92.8758 140.517 88.1327 144.452 83.6764C147.956 79.7096 151.983 76.2334 155.485 72.2808C162.462 64.408 168.118 53.4106 164.485 42.7244C162.549 37.0299 158.199 32.8384 152.845 30.2387Z" fill="#A48B5C"/>
</g>
<defs>
<clipPath id="clip0_0_3">
<rect width="256" height="256" fill="white"/>
</clipPath>
</defs>
</svg>
